<svg width="13" height="14" viewBox="0 0 13 14" fill="none" xmlns="http://www.w3.org/2000/svg">
<path d="M6.19789 8.54254C6.52919 8.70754 6.92301 8.59142 7.08866 8.27974C7.19805 8.07807 7.17928 7.78472 7.05114 7.60443C6.86673 7.35081 6.49481 7.25608 6.21039 7.39359C6.04161 7.47609 6.01034 7.5097 5.91971 7.68082C5.85407 7.8061 5.8447 7.86417 5.85407 8.02306C5.8697 8.27363 5.97598 8.43253 6.19789 8.54254Z" fill="black"/>
<path d="M3.56308 8.23391C3.78499 8.7167 4.48823 8.74421 4.75078 8.27974C4.89142 8.03529 4.83203 7.68694 4.62263 7.49443C4.4476 7.33248 4.12566 7.28665 3.89437 7.39054C3.56932 7.53416 3.41618 7.92223 3.56308 8.23391Z" fill="black"/>
<path d="M8.18257 7.97722C8.17944 8.5303 8.84831 8.82059 9.2765 8.45391C9.73282 8.05972 9.44215 7.32942 8.83267 7.33553C8.74829 7.33553 8.64202 7.3508 8.59826 7.36608C8.3451 7.46692 8.18257 7.70221 8.18257 7.97722Z" fill="black"/>
<path d="M8.53888 10.8282C8.81392 10.9626 9.08898 10.9199 9.30464 10.709C9.79221 10.2323 9.28588 9.4348 8.62328 9.63952C8.43263 9.70063 8.24196 9.90538 8.19195 10.1101C8.1232 10.3973 8.26384 10.6937 8.53888 10.8282Z" fill="black"/>
<path d="M6.07599 10.7457C6.50106 11.1093 7.16054 10.8068 7.16054 10.2507C7.16054 10.0795 7.07926 9.88704 6.96987 9.7862C6.78859 9.62425 6.44166 9.57536 6.20725 9.68231C5.78844 9.87177 5.71968 10.4401 6.07599 10.7457Z" fill="black"/>
<path d="M3.89125 10.8343C4.10066 10.929 4.2632 10.926 4.46948 10.8282C4.7414 10.6937 4.88517 10.3973 4.81641 10.1132C4.77265 9.94204 4.61637 9.74647 4.4601 9.67313C4.34445 9.61813 4.03504 9.60896 3.91314 9.65785C3.76312 9.7159 3.6506 9.82286 3.57871 9.97259C3.41619 10.3148 3.54745 10.6785 3.89125 10.8343Z" fill="black"/>
<path fill-rule="evenodd" clip-rule="evenodd" d="M3.04423 13.945C3.53181 14.0183 9.47648 14.0183 9.96411 13.945C11.4081 13.7372 12.3739 12.9763 12.7833 11.7235C12.9927 11.0818 12.9834 11.2499 12.9959 7.71443C13.0052 5.5052 12.999 4.40209 12.974 4.16985C12.7958 2.42505 11.7738 1.31582 10.1016 1.04997C9.93599 1.02247 9.77034 0.994966 9.73283 0.988853C9.66407 0.976631 9.66095 0.961352 9.66095 0.668006C9.66095 0.316613 9.61718 0.191336 9.46403 0.0843883C9.31714 -0.0195024 9.05148 -0.0256269 8.91083 0.0660363C8.72955 0.182153 8.66078 0.359398 8.66078 0.692468V0.976634H4.35383L4.34133 0.661896C4.32883 0.307442 4.27881 0.185218 4.09753 0.0691024C3.97251 -0.0164554 3.75686 -0.0225634 3.60371 0.0507728C3.40993 0.142443 3.36304 0.246341 3.35366 0.634413C3.34116 1.02553 3.38804 0.976644 2.95674 1.03775C2.27538 1.13554 1.60964 1.42583 1.15332 1.82307C0.53134 2.36087 0.178153 3.06674 0.0468821 4.03234C-0.015627 4.50297 -0.0156277 10.4676 0.0468821 10.9382C0.178153 11.9038 0.53134 12.6097 1.15332 13.1475C1.62839 13.56 2.27849 13.835 3.04423 13.945ZM1.00328 4.51207C1.00328 4.30428 1.07517 3.85204 1.15018 3.60454C1.40022 2.76117 1.95031 2.25698 2.8567 2.04613C2.99734 2.01252 3.16612 1.98501 3.23176 1.98501H3.34741V2.28753C3.34741 2.54726 3.35679 2.59922 3.41929 2.68783C3.51618 2.83144 3.67247 2.91394 3.85062 2.91394C4.0194 2.91394 4.11941 2.85894 4.24443 2.70005C4.32257 2.59615 4.33196 2.55948 4.34133 2.27224L4.35383 1.95446H8.65453L8.66703 2.2692C8.67953 2.6206 8.70765 2.68784 8.89831 2.8284C9.10771 2.9873 9.42964 2.92311 9.58905 2.68783C9.65156 2.59921 9.66095 2.54726 9.66095 2.28753V1.98501H9.78283C9.94535 1.98501 10.4454 2.11336 10.6736 2.21114C11.2549 2.46477 11.6644 2.94756 11.8613 3.61065C11.9332 3.8551 12.0051 4.30428 12.0051 4.51207V4.61291H1.00328V4.51207ZM9.90786 12.9702C9.47029 13.0375 3.53807 13.0375 3.1005 12.9702C1.8753 12.7747 1.19394 12.0657 1.03767 10.8312C1.01579 10.6509 1.00328 9.69451 1.00328 8.07196V5.59074H12.0051V8.05057C12.0051 9.59674 11.9926 10.6234 11.9707 10.8068C11.83 12.0505 11.1393 12.7747 9.90786 12.9702Z" fill="black"/>
</svg>
