<svg width="9" height="5" viewBox="0 0 9 5" fill="none" xmlns="http://www.w3.org/2000/svg">
<path d="M0.456028 0.0137843C0.283731 0.0539312 0.126489 0.186081 0.0478679 0.355033C0.00939381 0.440345 0.00102987 0.477146 0.00270266 0.597587C0.00270266 0.865233 -0.157885 0.684572 1.99666 2.84247C3.29642 4.14389 3.9371 4.77454 3.98895 4.80297C4.11107 4.86821 4.25325 4.89163 4.38039 4.86487C4.43726 4.85316 4.51923 4.82472 4.56105 4.80297C4.6129 4.77454 5.25358 4.14389 6.55334 2.84247C8.70789 0.684572 8.5473 0.865233 8.5473 0.597587C8.5473 0.477146 8.54061 0.440345 8.50046 0.351687C8.35995 0.0438945 7.98524 -0.0865829 7.67912 0.0656407C7.63563 0.0873869 7.03008 0.681226 5.94444 1.76519L4.275 3.43296L2.60556 1.76519C1.5149 0.676208 0.914371 0.0873869 0.870879 0.0656407C0.743747 0.0037476 0.586505 -0.0163258 0.456028 0.0137843Z" fill="black"/>
</svg>
