<svg width="25" height="25" viewBox="0 0 25 25" fill="none" xmlns="http://www.w3.org/2000/svg">
<path d="M12.3226 7.48458C9.13808 10.6767 8.83473 10.9945 8.69775 11.2878C8.45805 11.7913 7.46502 14.8515 7.43077 15.1888C7.36228 15.8096 7.61175 16.4794 8.0667 16.9389C8.51675 17.3837 9.16249 17.6282 9.76908 17.5793C10.136 17.5499 13.1494 16.582 13.7217 16.3083C14.0152 16.1714 14.3332 15.8682 17.5275 12.6859L21.0105 9.2102L20.9861 22.8979L20.8736 23.1864C20.5605 24.0174 19.9588 24.6089 19.1614 24.8875L18.8337 25H2.15243L1.82467 24.8875C1.01752 24.6089 0.391373 23.9832 0.112539 23.1717L0 22.8491V6.17934L0.112539 5.8518C0.430513 4.92789 1.20342 4.24839 2.15243 4.05285C2.26005 4.03329 5.37618 4.01373 9.07442 4.00884L15.7958 4.00397L12.3226 7.48458Z" fill="black"/>
<path d="M19.2984 2.63521C19.3136 2.63577 20.0178 3.32972 20.8638 4.17508L22.4047 5.71495L13.1102 15.003L11.4176 15.5652C10.4882 15.8732 9.67627 16.1274 9.61254 16.1274C9.54895 16.1274 9.40216 16.0834 9.28965 16.0247C9.06952 15.9172 8.87876 15.6239 8.87876 15.3892C8.87876 15.3257 9.13313 14.5142 9.44131 13.5854L10.0039 11.8989L14.6365 7.26947C17.19 4.71768 19.2837 2.63521 19.2984 2.63521Z" fill="black"/>
<path d="M22.0868 0.0394024C22.2922 -0.0241448 22.5955 -0.00947133 22.8499 0.0736312C23.0554 0.14207 23.2168 0.283838 23.9506 1.01711C24.4495 1.51573 24.8507 1.96057 24.9045 2.07301C25.0366 2.35166 25.0317 2.88453 24.8898 3.1485C24.8311 3.25608 24.4838 3.64225 24.1218 4.00397L23.4565 4.66392L21.9058 3.10937L20.3502 1.55972L21.0106 0.89491C21.6416 0.25941 21.8177 0.122506 22.0868 0.0394024Z" fill="black"/>
</svg>
