<svg width="75" height="76" viewBox="0 0 75 76" fill="none" xmlns="http://www.w3.org/2000/svg">
<path fill-rule="evenodd" clip-rule="evenodd" d="M37.4999 39.0145C38.1445 39.0145 38.4521 39.3075 38.584 40.0694C38.6719 40.5529 38.7304 40.6116 39.2578 40.6995C40.1952 40.8607 41.0741 41.5201 41.5136 42.3992C42.2167 43.8205 41.9092 45.066 40.8691 45.066C40.2832 45.066 39.6972 44.4799 39.6972 43.8938C39.6972 43.4836 39.1846 42.8242 38.8623 42.8242C38.7158 42.8242 38.6719 43.2491 38.6719 44.7144V46.6045L39.2432 46.7071C40.1953 46.8683 41.0742 47.5277 41.5136 48.4068C41.8505 49.0955 41.8945 49.3446 41.8945 50.7659C41.8945 52.4949 41.7626 52.9931 41.0742 53.799C40.62 54.3411 39.6826 54.8246 39.082 54.8393C38.7451 54.8393 38.6865 54.9126 38.5986 55.4254C38.496 56.0408 37.9687 56.5976 37.4999 56.5976C37.0312 56.5976 36.5039 56.0408 36.4013 55.4254C36.3134 54.8979 36.2548 54.8393 35.874 54.8393C34.4824 54.8393 33.1054 53.2421 33.1054 51.6304C33.1054 50.1944 34.9951 50.0186 35.2441 51.4399C35.3613 52.1578 35.6836 52.6414 36.0351 52.6414C36.3134 52.6414 36.3281 52.5388 36.3281 50.7366V48.8317H35.8887C34.9365 48.8317 33.7646 47.9086 33.2959 46.8243C33.1787 46.5312 33.1054 45.7693 33.1054 44.7583C33.1054 43.337 33.1494 43.0879 33.4863 42.3992C33.9257 41.5201 34.8046 40.8607 35.7421 40.6995C36.2695 40.6116 36.3281 40.5529 36.416 40.0694C36.4746 39.7764 36.6065 39.4101 36.7383 39.2636C36.8702 39.1171 37.1631 39.0145 37.4999 39.0145ZM38.8037 48.8317C38.7305 48.8317 38.6719 49.6816 38.6719 50.7366C38.6719 52.5242 38.6865 52.6414 38.9502 52.6414C39.4922 52.6414 39.6972 52.0846 39.6972 50.7219C39.6972 49.5058 39.6825 49.4179 39.3163 49.1395C39.0966 48.9637 38.8624 48.8317 38.8037 48.8317ZM36.3281 44.729C36.3281 42.6776 36.2549 42.5018 35.625 43.1612C35.3467 43.4542 35.3027 43.674 35.3027 44.773C35.3027 45.8573 35.3467 46.0917 35.5957 46.3408C35.7568 46.502 35.9912 46.6338 36.1084 46.6338C36.2988 46.6337 36.3281 46.326 36.3281 44.729Z" fill="white"/>
<path fill-rule="evenodd" clip-rule="evenodd" d="M34.9365 35.4392C36.4013 35.1169 39.3896 35.2194 40.8691 35.6443C44.956 36.8165 48.1641 39.9229 49.4824 43.9963C51.1963 49.2713 49.1016 55.1617 44.3994 58.268C42.3487 59.6454 40.0781 60.3047 37.4999 60.3047C34.9072 60.3047 32.6513 59.6307 30.6006 58.268C25.8984 55.147 23.8037 49.2713 25.5176 43.9963C26.9238 39.6592 30.4688 36.4356 34.9365 35.4392ZM39.7412 37.6371C35.1269 36.6115 30.2344 38.9705 28.1983 43.1905C26.7627 46.1649 26.7627 49.3153 28.1983 52.2751C29.9707 55.9383 33.4424 58.1068 37.4999 58.1068C40.664 58.1215 43.3154 56.8761 45.4541 54.4144C46.2451 53.4913 47.3291 51.3812 47.6221 50.1504C47.915 48.9782 47.8711 46.3261 47.5635 45.1686C46.5381 41.4175 43.4765 38.4577 39.7412 37.6371Z" fill="white"/>
<path fill-rule="evenodd" clip-rule="evenodd" d="M36.0937 0.697804C37.0751 0.434061 37.8515 0.43407 38.8476 0.697804C39.4042 0.84433 44.5752 3.62841 54.9609 9.38689C63.3543 14.0464 71.1326 18.3541 72.2167 18.9403C73.3007 19.5411 74.37 20.2004 74.6044 20.4203C74.9999 20.8159 75 20.8306 75 22.9258C75 25.7098 74.8242 26.3253 73.7109 27.4389C72.832 28.3181 72.1288 28.6404 70.7079 28.8456L70.0049 28.9334L68.1152 31.6002L66.2255 34.2524L66.2109 47.7474V61.2572L70.0781 66.7079H71.5137C73.125 66.7079 73.6816 66.8691 74.2968 67.5285C74.9121 68.2025 75 68.6274 75 71.0744C74.9854 74.0489 74.7363 74.6936 73.3447 75.2797C72.8757 75.4702 68.9492 75.4995 37.4999 75.4995C-0.54199 75.4995 1.65523 75.5434 0.834918 74.7961C0.131838 74.1661 1.69043e-06 73.5946 0 71.1184C0 68.6275 0.0879335 68.2025 0.703168 67.5285C1.3184 66.8691 1.87502 66.7079 3.48633 66.7079H4.92185L8.78906 61.2572V47.7474L8.77436 34.2524L4.99513 28.9482L4.14551 28.8456C2.92969 28.7137 1.94823 28.2008 1.12792 27.307C0.175774 26.2374 0 25.5487 0 22.8965C1.73415e-07 20.8599 0.0146789 20.728 0.322294 20.4496C0.937989 19.8779 16.6106 11.2774 17.0361 11.277C17.8418 11.2623 18.3838 12.376 17.8857 12.9914C17.7828 13.1088 14.9265 14.7498 11.5429 16.6252L5.376 20.0393L21.4453 20.0833C30.2783 20.0979 44.7363 20.0979 53.5693 20.0833L69.6533 20.0393L67.3096 18.7498C66.0205 18.0319 59.0039 14.1343 51.709 10.1049L38.4521 2.74921H36.5479L29.2236 6.82261C24.6826 9.32821 21.7382 10.8814 21.4892 10.8814C20.6543 10.8814 20.1562 9.63589 20.7714 9.0791C21.3135 8.59553 35.4052 0.888331 36.0937 0.697804ZM37.5292 68.9351C8.73046 68.9058 2.31444 68.9351 2.25584 69.0963C2.22655 69.1989 2.21191 70.1806 2.22655 71.2649L2.27054 73.2283H72.7295V68.9791L37.5292 68.9351ZM21.7089 31.6149L19.7754 34.3403V61.2132L21.7236 63.9533L23.6572 66.6932H51.3427L53.2764 63.9533L55.2246 61.2132V52.2165L55.6055 51.9234C56.0449 51.5718 56.2354 51.5425 56.7334 51.777C57.3779 52.07 57.4219 52.4217 57.4219 56.5976V60.5538H64.0137V35.0583H57.4365L57.3486 48.1284L56.997 48.4068C56.5283 48.7878 55.9277 48.7585 55.5468 48.3482C55.2245 48.0112 55.2246 47.9818 55.2246 41.1684V34.3403L53.291 31.6149L51.372 28.9042H23.6279L21.7089 31.6149ZM9.03807 64.6858L7.66114 66.6346L10.9277 66.6786C12.7148 66.6933 15.7177 66.6933 17.5634 66.6786L20.9473 66.6346L18.2226 62.825L14.3262 62.781L10.4297 62.7517L9.03807 64.6858ZM56.499 63.2206C56.2939 63.4843 55.6641 64.3635 55.0928 65.1694L54.0527 66.6346L57.3339 66.6786C59.1503 66.6933 62.1387 66.6933 63.9844 66.6786L67.3389 66.6346L65.9619 64.6858L64.5703 62.7517H56.8506L56.499 63.2206ZM10.9863 60.5538H17.5781V35.0583H10.9863V60.5538ZM14.3408 28.9042C10.7083 28.9042 7.76412 28.9627 7.79299 29.0213C7.82229 29.0946 8.42287 29.9738 9.14064 30.9994L10.459 32.8604H18.1347L19.541 30.8823L20.9326 28.9042H14.3408ZM55.4589 30.8823L56.8652 32.8604H64.541L65.8594 30.9994C66.5771 29.9738 67.1924 29.0946 67.207 29.0213C67.2355 28.9627 64.2915 28.9042 60.6592 28.9042H54.0674L55.4589 30.8823ZM2.22655 23.7611C2.2705 25.3289 2.41698 25.6952 3.2812 26.3253L3.67677 26.633H71.2939L71.836 26.2081C72.5977 25.6366 72.8027 25.0505 72.8027 23.5559V22.3105H2.16797L2.22655 23.7611Z" fill="white"/>
<path fill-rule="evenodd" clip-rule="evenodd" d="M36.6064 7.2183C38.7891 6.85199 41.0009 7.99491 42.0556 10.017C42.5537 10.9987 42.6122 12.8596 42.1728 14.0318C41.7333 15.2186 40.5322 16.4348 39.3603 16.8597C38.2178 17.2846 36.7822 17.2846 35.6397 16.8597C34.4678 16.4348 33.2666 15.2186 32.8271 14.0318C32.3877 12.8596 32.4462 10.9986 32.9443 10.0023C33.662 8.61026 35.1563 7.46739 36.6064 7.2183ZM38.8037 9.67987C36.8262 8.7128 34.7168 10.0023 34.7168 12.2002C34.7168 13.8266 35.8593 14.9841 37.4999 14.9841C39.2577 14.9841 40.3711 13.7534 40.2539 11.9658C40.21 11.2038 40.122 10.9401 39.7558 10.4858C39.5068 10.1781 39.082 9.81175 38.8037 9.67987Z" fill="white"/>
</svg>
